<?xml version="1.0" standalone="no"?>
<!DOCTYPE svg PUBLIC "-//W3C//DTD SVG 1.1//EN" 
  "http://www.w3.org/Graphics/SVG/1.1/DTD/svg11.dtd">
<svg width="512px" height="512px" viewBox="0px 0px 512px 512px"
     xmlns="http://www.w3.org/2000/svg" version="1.1">
<desc>StarBlazer.blend, StarBlazerRing, StarBlazerRing (Blender 2.52 (sub 0))</desc>
<polygon fill="rgb(204, 204, 204)" fill-opacity="0.5" stroke="black" stroke-width="1px" 
  points="157.633,342.850 157.331,366.353 175.760,366.590 176.062,343.087 " />
<polygon fill="rgb(204, 204, 204)" fill-opacity="0.5" stroke="black" stroke-width="1px" 
  points="176.062,343.087 175.760,366.590 194.190,366.827 194.492,343.324 " />
<polygon fill="rgb(204, 204, 204)" fill-opacity="0.5" stroke="black" stroke-width="1px" 
  points="194.492,343.324 194.190,366.827 212.619,367.064 212.922,343.561 " />
<polygon fill="rgb(204, 204, 204)" fill-opacity="0.5" stroke="black" stroke-width="1px" 
  points="212.922,343.561 212.619,367.064 231.049,367.301 231.351,343.798 " />
<polygon fill="rgb(204, 204, 204)" fill-opacity="0.5" stroke="black" stroke-width="1px" 
  points="231.351,343.798 231.049,367.301 249.478,367.538 249.781,344.035 " />
<polygon fill="rgb(204, 204, 204)" fill-opacity="0.5" stroke="black" stroke-width="1px" 
  points="249.781,344.035 249.478,367.538 267.908,367.775 268.210,344.272 " />
<polygon fill="rgb(204, 204, 204)" fill-opacity="0.5" stroke="black" stroke-width="1px" 
  points="86.055,482.025 86.061,503.790 103.128,503.785 103.121,482.020 " />
<polygon fill="rgb(204, 204, 204)" fill-opacity="0.5" stroke="black" stroke-width="1px" 
  points="103.121,482.020 103.128,503.785 120.194,503.780 120.187,482.015 " />
<polygon fill="rgb(204, 204, 204)" fill-opacity="0.5" stroke="black" stroke-width="1px" 
  points="120.187,482.015 120.194,503.780 137.260,503.775 137.254,482.010 " />
<polygon fill="rgb(204, 204, 204)" fill-opacity="0.5" stroke="black" stroke-width="1px" 
  points="137.254,482.010 137.260,503.775 154.327,503.770 154.320,482.005 " />
<polygon fill="rgb(204, 204, 204)" fill-opacity="0.5" stroke="black" stroke-width="1px" 
  points="154.320,482.005 154.327,503.770 171.393,503.764 171.386,482.000 " />
<polygon fill="rgb(204, 204, 204)" fill-opacity="0.5" stroke="black" stroke-width="1px" 
  points="171.386,482.000 171.393,503.764 188.459,503.759 188.453,481.994 " />
<polygon fill="rgb(204, 204, 204)" fill-opacity="0.5" stroke="black" stroke-width="1px" 
  points="188.453,481.994 188.459,503.759 205.526,503.754 205.519,481.989 " />
<polygon fill="rgb(204, 204, 204)" fill-opacity="0.5" stroke="black" stroke-width="1px" 
  points="205.519,481.989 205.526,503.754 222.592,503.748 222.585,481.983 " />
<polygon fill="rgb(204, 204, 204)" fill-opacity="0.5" stroke="black" stroke-width="1px" 
  points="222.585,481.983 222.592,503.748 239.659,503.742 239.652,481.978 " />
<polygon fill="rgb(204, 204, 204)" fill-opacity="0.5" stroke="black" stroke-width="1px" 
  points="239.652,481.978 239.659,503.742 256.725,503.736 256.718,481.972 " />
<polygon fill="rgb(204, 204, 204)" fill-opacity="0.5" stroke="black" stroke-width="1px" 
  points="256.718,481.972 256.725,503.736 273.792,503.731 273.785,481.966 " />
<polygon fill="rgb(204, 204, 204)" fill-opacity="0.5" stroke="black" stroke-width="1px" 
  points="273.785,481.966 273.792,503.731 290.858,503.725 290.851,481.960 " />
<polygon fill="rgb(204, 204, 204)" fill-opacity="0.5" stroke="black" stroke-width="1px" 
  points="88.731,427.887 88.743,451.203 107.026,451.193 107.014,427.877 " />
<polygon fill="rgb(204, 204, 204)" fill-opacity="0.5" stroke="black" stroke-width="1px" 
  points="107.014,427.877 107.026,451.193 125.309,451.183 125.297,427.867 " />
<polygon fill="rgb(204, 204, 204)" fill-opacity="0.5" stroke="black" stroke-width="1px" 
  points="125.297,427.867 125.309,451.183 143.592,451.173 143.580,427.857 " />
<polygon fill="rgb(204, 204, 204)" fill-opacity="0.5" stroke="black" stroke-width="1px" 
  points="143.580,427.857 143.592,451.173 161.875,451.164 161.863,427.847 " />
<polygon fill="rgb(204, 204, 204)" fill-opacity="0.5" stroke="black" stroke-width="1px" 
  points="161.863,427.847 161.875,451.164 180.159,451.154 180.146,427.837 " />
<polygon fill="rgb(204, 204, 204)" fill-opacity="0.5" stroke="black" stroke-width="1px" 
  points="180.146,427.837 180.159,451.154 198.442,451.144 198.429,427.827 " />
<polygon fill="rgb(204, 204, 204)" fill-opacity="0.5" stroke="black" stroke-width="1px" 
  points="198.429,427.827 198.442,451.144 216.725,451.133 216.712,427.817 " />
<polygon fill="rgb(204, 204, 204)" fill-opacity="0.5" stroke="black" stroke-width="1px" 
  points="216.712,427.817 216.725,451.133 235.008,451.123 234.996,427.807 " />
<polygon fill="rgb(204, 204, 204)" fill-opacity="0.5" stroke="black" stroke-width="1px" 
  points="234.996,427.807 235.008,451.123 253.291,451.112 253.279,427.796 " />
<polygon fill="rgb(204, 204, 204)" fill-opacity="0.5" stroke="black" stroke-width="1px" 
  points="253.279,427.796 253.291,451.112 271.574,451.102 271.562,427.786 " />
<polygon fill="rgb(204, 204, 204)" fill-opacity="0.5" stroke="black" stroke-width="1px" 
  points="83.914,341.902 83.611,365.406 102.041,365.642 102.343,342.139 " />
<polygon fill="rgb(204, 204, 204)" fill-opacity="0.5" stroke="black" stroke-width="1px" 
  points="102.343,342.139 102.041,365.642 120.470,365.879 120.773,342.376 " />
<polygon fill="rgb(204, 204, 204)" fill-opacity="0.5" stroke="black" stroke-width="1px" 
  points="120.773,342.376 120.470,365.879 138.900,366.116 139.203,342.613 " />
<polygon fill="rgb(204, 204, 204)" fill-opacity="0.5" stroke="black" stroke-width="1px" 
  points="157.331,366.353 157.633,342.850 139.203,342.613 138.900,366.116 " />
<polygon fill="rgb(204, 204, 204)" fill-opacity="0.5" stroke="black" stroke-width="1px" 
  points="265.578,202.408 221.062,190.857 219.539,216.836 260.547,227.476 " />
<polygon fill="rgb(204, 204, 204)" fill-opacity="0.5" stroke="black" stroke-width="1px" 
  points="115.369,282.681 159.910,271.388 161.359,297.374 120.328,307.776 " />
<polygon fill="rgb(204, 204, 204)" fill-opacity="0.5" stroke="black" stroke-width="1px" 
  points="221.062,190.857 175.817,191.777 177.861,217.684 219.539,216.836 " />
<polygon fill="rgb(204, 204, 204)" fill-opacity="0.5" stroke="black" stroke-width="1px" 
  points="73.207,306.017 115.369,282.681 120.328,307.776 81.489,329.273 " />
<polygon fill="rgb(204, 204, 204)" fill-opacity="0.5" stroke="black" stroke-width="1px" 
  points="175.817,191.777 131.554,205.133 137.087,229.987 177.861,217.684 " />
<polygon fill="rgb(204, 204, 204)" fill-opacity="0.5" stroke="black" stroke-width="1px" 
  points="35.021,340.515 73.207,306.017 81.489,329.273 46.313,361.051 " />
<polygon fill="rgb(204, 204, 204)" fill-opacity="0.5" stroke="black" stroke-width="1px" 
  points="131.554,205.133 89.946,230.419 98.760,253.280 137.087,229.987 " />
<polygon fill="rgb(204, 204, 204)" fill-opacity="0.5" stroke="black" stroke-width="1px" 
  points="2.255,384.870 35.021,340.515 46.313,361.051 16.130,401.909 " />
<polygon fill="rgb(204, 204, 204)" fill-opacity="0.5" stroke="black" stroke-width="1px" 
  points="55.671,282.853 95.532,252.401 102.600,276.458 65.881,304.509 " />
<polygon fill="rgb(204, 204, 204)" fill-opacity="0.5" stroke="black" stroke-width="1px" 
  points="65.615,187.672 13.805,233.215 26.025,258.281 73.751,216.327 " />
<polygon fill="rgb(204, 204, 204)" fill-opacity="0.5" stroke="black" stroke-width="1px" 
  points="95.532,252.401 138.785,233.497 142.444,259.043 102.600,276.458 " />
<polygon fill="rgb(204, 204, 204)" fill-opacity="0.5" stroke="black" stroke-width="1px" 
  points="121.329,155.883 65.615,187.672 73.751,216.327 125.073,187.043 " />
<polygon fill="rgb(204, 204, 204)" fill-opacity="0.5" stroke="black" stroke-width="1px" 
  points="138.785,233.497 183.795,226.855 183.905,252.924 142.444,259.043 " />
<polygon fill="rgb(204, 204, 204)" fill-opacity="0.5" stroke="black" stroke-width="1px" 
  points="178.838,139.049 121.329,155.883 125.073,187.043 178.049,171.535 " />
<polygon fill="rgb(204, 204, 204)" fill-opacity="0.5" stroke="black" stroke-width="1px" 
  points="183.795,226.855 228.856,232.725 225.415,258.332 183.905,252.924 " />
<polygon fill="rgb(204, 204, 204)" fill-opacity="0.5" stroke="black" stroke-width="1px" 
  points="235.967,137.806 178.838,139.049 178.049,171.535 230.676,170.390 " />
<polygon fill="rgb(204, 204, 204)" fill-opacity="0.5" stroke="black" stroke-width="1px" 
  points="228.856,232.725 272.265,250.886 265.402,275.060 225.415,258.332 " />
<polygon fill="rgb(204, 204, 204)" fill-opacity="0.5" stroke="black" stroke-width="1px" 
  points="290.555,152.201 235.967,137.806 230.676,170.390 280.961,183.649 " />
<polygon fill="rgb(204, 204, 204)" fill-opacity="0.5" stroke="black" stroke-width="1px" 
  points="272.265,250.886 312.378,280.650 302.354,302.477 265.402,275.060 " />
<polygon fill="rgb(204, 204, 204)" fill-opacity="0.5" stroke="black" stroke-width="1px" 
  points="340.536,181.688 290.555,152.201 280.961,183.649 327.004,210.811 " />
<polygon fill="rgb(204, 204, 204)" fill-opacity="0.5" stroke="black" stroke-width="1px" 
  points="312.378,280.650 347.679,320.890 334.872,339.544 302.354,302.477 " />
<polygon fill="rgb(204, 204, 204)" fill-opacity="0.5" stroke="black" stroke-width="1px" 
  points="384.021,225.152 340.536,181.688 327.004,210.811 367.061,250.848 " />
<polygon fill="rgb(204, 204, 204)" fill-opacity="0.5" stroke="black" stroke-width="1px" 
  points="347.679,320.890 376.831,370.082 361.726,384.859 334.872,339.544 " />
<polygon fill="rgb(204, 204, 204)" fill-opacity="0.5" stroke="black" stroke-width="1px" 
  points="419.365,280.947 384.021,225.152 367.061,250.848 399.620,302.245 " />
<polygon fill="rgb(204, 204, 204)" fill-opacity="0.5" stroke="black" stroke-width="1px" 
  points="376.831,370.082 398.732,426.366 381.901,436.706 361.726,384.859 " />
<polygon fill="rgb(204, 204, 204)" fill-opacity="0.5" stroke="black" stroke-width="1px" 
  points="445.230,346.962 419.365,280.947 399.620,302.245 423.447,363.056 " />
<polygon fill="rgb(204, 204, 204)" fill-opacity="0.5" stroke="black" stroke-width="1px" 
  points="398.732,426.366 412.554,487.612 394.634,493.123 381.901,436.706 " />
<polygon fill="rgb(204, 204, 204)" fill-opacity="0.5" stroke="black" stroke-width="1px" 
  points="460.641,420.700 445.230,346.962 423.447,363.056 437.642,430.981 " />
<polygon fill="rgb(204, 204, 204)" fill-opacity="0.5" stroke="black" stroke-width="1px" 
  points="508.065,344.357 501.320,280.465 479.397,285.802 485.610,344.658 " />
<polygon fill="rgb(204, 204, 204)" fill-opacity="0.5" stroke="black" stroke-width="1px" 
  points="80.804,126.136 42.596,167.768 57.248,185.861 92.444,147.511 " />
<polygon fill="rgb(204, 204, 204)" fill-opacity="0.5" stroke="black" stroke-width="1px" 
  points="501.320,280.465 484.052,219.134 463.491,229.307 479.397,285.802 " />
<polygon fill="rgb(204, 204, 204)" fill-opacity="0.5" stroke="black" stroke-width="1px" 
  points="124.600,94.763 80.804,126.136 92.444,147.511 132.787,118.612 " />
<polygon fill="rgb(204, 204, 204)" fill-opacity="0.5" stroke="black" stroke-width="1px" 
  points="484.052,219.134 456.913,162.686 438.491,177.309 463.491,229.307 " />
<polygon fill="rgb(204, 204, 204)" fill-opacity="0.5" stroke="black" stroke-width="1px" 
  points="172.326,74.839 124.600,94.763 132.787,118.612 176.752,100.258 " />
<polygon fill="rgb(204, 204, 204)" fill-opacity="0.5" stroke="black" stroke-width="1px" 
  points="456.913,162.686 420.931,113.258 405.345,131.777 438.491,177.309 " />
<polygon fill="rgb(204, 204, 204)" fill-opacity="0.5" stroke="black" stroke-width="1px" 
  points="222.178,67.117 172.326,74.839 176.752,100.258 222.673,93.146 " />
<polygon fill="rgb(204, 204, 204)" fill-opacity="0.5" stroke="black" stroke-width="1px" 
  points="420.931,113.258 377.467,72.719 365.307,94.434 405.345,131.777 " />
<polygon fill="rgb(204, 204, 204)" fill-opacity="0.5" stroke="black" stroke-width="1px" 
  points="272.268,71.891 222.178,67.117 222.673,93.146 268.814,97.543 " />
<polygon fill="rgb(204, 204, 204)" fill-opacity="0.5" stroke="black" stroke-width="1px" 
  points="377.467,72.719 328.166,42.605 319.893,66.693 365.307,94.434 " />
<polygon fill="rgb(204, 204, 204)" fill-opacity="0.5" stroke="black" stroke-width="1px" 
  points="320.701,88.980 272.268,71.891 268.814,97.543 313.428,113.286 " />
<polygon fill="rgb(204, 204, 204)" fill-opacity="0.5" stroke="black" stroke-width="1px" 
  points="328.166,42.605 274.895,24.054 270.821,49.604 319.893,66.693 " />
<polygon fill="rgb(204, 204, 204)" fill-opacity="0.5" stroke="black" stroke-width="1px" 
  points="365.643,117.738 320.701,88.980 313.428,113.286 354.827,139.777 " />
<polygon fill="rgb(204, 204, 204)" fill-opacity="0.5" stroke="black" stroke-width="1px" 
  points="274.895,24.054 219.669,17.768 219.949,43.814 270.821,49.604 " />
<polygon fill="rgb(204, 204, 204)" fill-opacity="0.5" stroke="black" stroke-width="1px" 
  points="405.393,157.078 365.643,117.738 354.827,139.777 391.443,176.016 " />
<polygon fill="rgb(204, 204, 204)" fill-opacity="0.5" stroke="black" stroke-width="1px" 
  points="219.669,17.768 164.578,23.985 169.202,49.541 219.949,43.814 " />
<polygon fill="rgb(204, 204, 204)" fill-opacity="0.5" stroke="black" stroke-width="1px" 
  points="438.448,205.510 405.393,157.078 391.443,176.016 421.891,220.630 " />
<polygon fill="rgb(204, 204, 204)" fill-opacity="0.5" stroke="black" stroke-width="1px" 
  points="164.578,23.985 111.708,42.469 120.499,66.567 169.202,49.541 " />
<polygon fill="rgb(204, 204, 204)" fill-opacity="0.5" stroke="black" stroke-width="1px" 
  points="463.554,261.203 438.448,205.510 421.891,220.630 445.018,271.933 " />
<polygon fill="rgb(204, 204, 204)" fill-opacity="0.5" stroke="black" stroke-width="1px" 
  points="111.708,42.469 63.058,72.521 75.685,94.250 120.499,66.567 " />
<polygon fill="rgb(204, 204, 204)" fill-opacity="0.5" stroke="black" stroke-width="1px" 
  points="479.762,322.048 463.554,261.203 445.018,271.933 459.947,327.981 " />
<polygon fill="rgb(204, 204, 204)" fill-opacity="0.5" stroke="black" stroke-width="1px" 
  points="63.058,72.521 20.470,113.003 36.454,131.540 75.685,94.250 " />
<polygon fill="rgb(204, 204, 204)" fill-opacity="0.5" stroke="black" stroke-width="1px" 
  points="486.458,385.741 479.762,322.048 459.947,327.981 466.115,386.653 " />
<polygon fill="rgb(204, 204, 204)" fill-opacity="0.5" stroke="black" stroke-width="1px" 
  points="432.584,479.554 422.654,416.796 405.240,424.963 414.388,482.775 " />
<polygon fill="rgb(204, 204, 204)" fill-opacity="0.5" stroke="black" stroke-width="1px" 
  points="359.791,394.183 384.531,448.044 368.276,460.107 345.485,410.492 " />
<polygon fill="rgb(204, 204, 204)" fill-opacity="0.5" stroke="black" stroke-width="1px" 
  points="422.654,416.796 404.364,357.957 388.393,370.764 405.240,424.963 " />
<polygon fill="rgb(204, 204, 204)" fill-opacity="0.5" stroke="black" stroke-width="1px" 
  points="328.184,348.150 359.791,394.183 345.485,410.492 316.370,368.087 " />
<polygon fill="rgb(204, 204, 204)" fill-opacity="0.5" stroke="black" stroke-width="1px" 
  points="404.364,357.957 378.408,305.266 364.483,322.226 388.393,370.764 " />
<polygon fill="rgb(204, 204, 204)" fill-opacity="0.5" stroke="black" stroke-width="1px" 
  points="290.907,311.686 328.184,348.150 316.370,368.087 282.031,334.497 " />
<polygon fill="rgb(204, 204, 204)" fill-opacity="0.5" stroke="black" stroke-width="1px" 
  points="378.408,305.266 345.767,260.715 334.415,281.187 364.483,322.226 " />
<polygon fill="rgb(204, 204, 204)" fill-opacity="0.5" stroke="black" stroke-width="1px" 
  points="249.372,286.170 290.907,311.686 282.031,334.497 243.769,310.991 " />
<polygon fill="rgb(204, 204, 204)" fill-opacity="0.5" stroke="black" stroke-width="1px" 
  points="345.767,260.715 307.677,225.991 299.327,249.201 334.415,281.187 " />
<polygon fill="rgb(204, 204, 204)" fill-opacity="0.5" stroke="black" stroke-width="1px" 
  points="205.149,272.566 249.372,286.170 243.769,310.991 203.032,298.459 " />
<polygon fill="rgb(204, 204, 204)" fill-opacity="0.5" stroke="black" stroke-width="1px" 
  points="307.677,225.991 265.578,202.408 260.547,227.476 299.327,249.201 " />
<polygon fill="rgb(204, 204, 204)" fill-opacity="0.5" stroke="black" stroke-width="1px" 
  points="159.910,271.388 205.149,272.566 203.032,298.459 161.359,297.374 " />
<polygon fill="rgb(204, 204, 204)" fill-opacity="0.5" stroke="black" stroke-width="1px" 
  points="171.837,422.547 188.678,422.785 188.981,401.309 172.141,401.071 " />
<polygon fill="rgb(204, 204, 204)" fill-opacity="0.5" stroke="black" stroke-width="1px" 
  points="154.997,422.309 171.837,422.547 172.141,401.071 155.301,400.833 " />
<polygon fill="rgb(204, 204, 204)" fill-opacity="0.5" stroke="black" stroke-width="1px" 
  points="138.157,422.070 154.997,422.309 155.301,400.833 138.461,400.594 " />
<polygon fill="rgb(204, 204, 204)" fill-opacity="0.5" stroke="black" stroke-width="1px" 
  points="121.317,421.832 138.157,422.070 138.461,400.594 121.621,400.356 " />
<polygon fill="rgb(204, 204, 204)" fill-opacity="0.5" stroke="black" stroke-width="1px" 
  points="104.477,421.594 121.317,421.832 121.621,400.356 104.780,400.118 " />
<polygon fill="rgb(204, 204, 204)" fill-opacity="0.5" stroke="black" stroke-width="1px" 
  points="87.636,421.356 104.477,421.594 104.780,400.118 87.940,399.880 " />
<polygon fill="rgb(204, 204, 204)" fill-opacity="0.5" stroke="black" stroke-width="1px" 
  points="102.496,456.152 86.775,456.152 86.775,476.201 102.496,476.201 " />
<polygon fill="rgb(204, 204, 204)" fill-opacity="0.5" stroke="black" stroke-width="1px" 
  points="118.216,456.152 102.496,456.152 102.496,476.201 118.216,476.201 " />
<polygon fill="rgb(204, 204, 204)" fill-opacity="0.5" stroke="black" stroke-width="1px" 
  points="133.937,456.152 118.216,456.152 118.216,476.201 133.937,476.201 " />
<polygon fill="rgb(204, 204, 204)" fill-opacity="0.5" stroke="black" stroke-width="1px" 
  points="149.658,456.152 133.937,456.152 133.937,476.201 149.658,476.201 " />
<polygon fill="rgb(204, 204, 204)" fill-opacity="0.5" stroke="black" stroke-width="1px" 
  points="165.379,456.152 149.658,456.152 149.658,476.201 165.379,476.201 " />
<polygon fill="rgb(204, 204, 204)" fill-opacity="0.5" stroke="black" stroke-width="1px" 
  points="181.100,456.152 165.379,456.152 165.379,476.201 181.100,476.201 " />
<polygon fill="rgb(204, 204, 204)" fill-opacity="0.5" stroke="black" stroke-width="1px" 
  points="196.821,456.152 181.100,456.152 181.100,476.201 196.821,476.201 " />
<polygon fill="rgb(204, 204, 204)" fill-opacity="0.5" stroke="black" stroke-width="1px" 
  points="212.542,456.152 196.821,456.152 196.821,476.201 212.542,476.201 " />
<polygon fill="rgb(204, 204, 204)" fill-opacity="0.5" stroke="black" stroke-width="1px" 
  points="228.263,456.152 212.542,456.152 212.542,476.201 228.264,476.201 " />
<polygon fill="rgb(204, 204, 204)" fill-opacity="0.5" stroke="black" stroke-width="1px" 
  points="243.985,456.152 228.263,456.152 228.264,476.201 243.985,476.201 " />
<polygon fill="rgb(204, 204, 204)" fill-opacity="0.5" stroke="black" stroke-width="1px" 
  points="259.706,456.152 243.985,456.152 243.985,476.201 259.706,476.201 " />
<polygon fill="rgb(204, 204, 204)" fill-opacity="0.5" stroke="black" stroke-width="1px" 
  points="275.427,456.152 259.706,456.152 259.706,476.201 275.427,476.201 " />
<polygon fill="rgb(204, 204, 204)" fill-opacity="0.5" stroke="black" stroke-width="1px" 
  points="104.589,374.251 87.748,374.326 87.844,395.804 104.686,395.729 " />
<polygon fill="rgb(204, 204, 204)" fill-opacity="0.5" stroke="black" stroke-width="1px" 
  points="121.431,374.176 104.589,374.251 104.686,395.729 121.527,395.654 " />
<polygon fill="rgb(204, 204, 204)" fill-opacity="0.5" stroke="black" stroke-width="1px" 
  points="138.273,374.101 121.431,374.176 121.527,395.654 138.369,395.579 " />
<polygon fill="rgb(204, 204, 204)" fill-opacity="0.5" stroke="black" stroke-width="1px" 
  points="155.114,374.026 138.273,374.101 138.369,395.579 155.211,395.504 " />
<polygon fill="rgb(204, 204, 204)" fill-opacity="0.5" stroke="black" stroke-width="1px" 
  points="171.956,373.950 155.114,374.026 155.211,395.504 172.052,395.428 " />
<polygon fill="rgb(204, 204, 204)" fill-opacity="0.5" stroke="black" stroke-width="1px" 
  points="188.797,373.875 171.956,373.950 172.052,395.428 188.894,395.353 " />
<polygon fill="rgb(204, 204, 204)" fill-opacity="0.5" stroke="black" stroke-width="1px" 
  points="205.639,373.799 188.797,373.875 188.894,395.353 205.736,395.277 " />
<polygon fill="rgb(204, 204, 204)" fill-opacity="0.5" stroke="black" stroke-width="1px" 
  points="222.481,373.724 205.639,373.799 205.736,395.277 222.578,395.202 " />
<polygon fill="rgb(204, 204, 204)" fill-opacity="0.5" stroke="black" stroke-width="1px" 
  points="239.322,373.649 222.481,373.724 222.578,395.202 239.419,395.127 " />
<polygon fill="rgb(204, 204, 204)" fill-opacity="0.5" stroke="black" stroke-width="1px" 
  points="256.164,373.573 239.322,373.649 239.419,395.127 256.261,395.051 " />
<polygon fill="rgb(204, 204, 204)" fill-opacity="0.5" stroke="black" stroke-width="1px" 
  points="239.199,423.498 256.039,423.736 256.342,402.260 239.502,402.022 " />
<polygon fill="rgb(204, 204, 204)" fill-opacity="0.5" stroke="black" stroke-width="1px" 
  points="222.359,423.261 239.199,423.498 239.502,402.022 222.662,401.785 " />
<polygon fill="rgb(204, 204, 204)" fill-opacity="0.5" stroke="black" stroke-width="1px" 
  points="205.519,423.023 222.359,423.261 222.662,401.785 205.821,401.547 " />
<polygon fill="rgb(204, 204, 204)" fill-opacity="0.5" stroke="black" stroke-width="1px" 
  points="205.821,401.547 188.981,401.309 188.678,422.785 205.519,423.023 " />

</svg>
